<?xml version="1.0" encoding="UTF-8" standalone="no"?>
<svg
   xmlns:dc="http://purl.org/dc/elements/1.1/"
   xmlns:cc="http://creativecommons.org/ns#"
   xmlns:rdf="http://www.w3.org/1999/02/22-rdf-syntax-ns#"
   xmlns:svg="http://www.w3.org/2000/svg"
   xmlns="http://www.w3.org/2000/svg"
   xmlns:sodipodi="http://sodipodi.sourceforge.net/DTD/sodipodi-0.dtd"
   xmlns:inkscape="http://www.inkscape.org/namespaces/inkscape"
   width="256"
   height="44.112999"
   viewBox="0 0 67.733334 11.671565"
   version="1.1"
   id="svg8"
   inkscape:version="1.0 (4035a4fb49, 2020-05-01)"
   sodipodi:docname="AppName.svg"
   inkscape:export-filename="C:\Users\Uvaysa\Desktop\ColorPRO\ColorPRO_CORE\SVG\AppName.png"
   inkscape:export-xdpi="192"
   inkscape:export-ydpi="192">
  <defs
     id="defs2" />
  <sodipodi:namedview
     id="base"
     pagecolor="#ffffff"
     bordercolor="#666666"
     borderopacity="1.0"
     inkscape:pageopacity="0.0"
     inkscape:pageshadow="2"
     inkscape:zoom="4.0000001"
     inkscape:cx="133.25094"
     inkscape:cy="57.162293"
     inkscape:document-units="px"
     inkscape:current-layer="layer1"
     inkscape:document-rotation="0"
     showgrid="true"
     units="px"
     inkscape:window-width="1920"
     inkscape:window-height="1013"
     inkscape:window-x="-9"
     inkscape:window-y="29"
     inkscape:window-maximized="1">
    <inkscape:grid
       type="xygrid"
       id="grid833" />
  </sodipodi:namedview>
  <metadata
     id="metadata5">
    <rdf:RDF>
      <cc:Work
         rdf:about="">
        <dc:format>image/svg+xml</dc:format>
        <dc:type
           rdf:resource="http://purl.org/dc/dcmitype/StillImage" />
        <dc:title />
      </cc:Work>
    </rdf:RDF>
  </metadata>
  <g
     inkscape:label="Layer 1"
     inkscape:groupmode="layer"
     id="layer1">
    <g
       transform="matrix(1.9205297,0,0,1.9205297,-181.72105,-3.8266876)"
       style="fill:#ffffff"
       id="g853">
      <path
         id="path836"
         style="font-style:normal;font-variant:normal;font-weight:normal;font-stretch:normal;font-size:8.11389px;font-family:Poppins;-inkscape-font-specification:Poppins;fill:#ffffff;stroke-width:1.92053"
         d="m 85.167969,0 v 43.583984 h 4.123047 V 0 Z M 20.142578,1.9433594 c -3.769358,0 -7.185439,0.9028324 -10.2480468,2.7089844 C 6.8319283,6.419231 4.4172779,8.9131512 2.6503906,12.132812 0.88350336,15.31321 0,18.924541 0,22.96875 c 0,4.044209 0.88350336,7.657493 2.6503906,10.837891 1.7668873,3.180397 4.1815377,5.674317 7.2441406,7.480468 3.0626078,1.766888 6.4786888,2.648438 10.2480468,2.648438 4.554642,0 8.481106,-1.078752 11.779297,-3.238281 3.298191,-2.159529 5.693488,-5.20249 7.185547,-9.128907 h -4.830078 c -1.177927,2.748492 -2.983592,4.907949 -5.417969,6.478516 -2.395118,1.531302 -5.300816,2.296875 -8.716797,2.296875 -3.023338,0 -5.753118,-0.707584 -8.1875,-2.121094 -2.3951126,-1.41351 -4.2780985,-3.435706 -5.6523436,-6.066406 -1.3742451,-2.630699 -2.0625,-5.69299 -2.0625,-9.1875 0,-3.494511 0.6882549,-6.556801 2.0625,-9.1875 1.3742451,-2.669963 3.257231,-4.7114897 5.6523436,-6.125 2.434382,-1.4135098 5.164162,-2.1210938 8.1875,-2.1210938 3.415981,0 6.321679,0.7868553 8.716797,2.3574219 2.434377,1.5705667 4.240042,3.7493539 5.417969,6.5371099 h 4.830078 C 37.615363,10.464007 35.220066,7.4017164 31.921875,5.2421875 28.662949,3.0433939 24.736485,1.9433594 20.142578,1.9433594 Z M 151.60742,10.835938 c -2.70923,0 -5.00598,0.550994 -6.89062,1.65039 -1.84545,1.099397 -3.22002,2.649871 -4.12305,4.652344 v -5.712891 h -4.12109 v 32.158203 h 4.12109 V 25.619141 c 0,-3.76936 0.90483,-6.458529 2.71094,-8.06836 1.80615,-1.609831 4.19949,-2.414062 7.18359,-2.414062 h 1.11914 z m -90.091795,0.11914 c -3.023343,0 -5.751174,0.686301 -8.185547,2.060547 -2.434373,1.334981 -4.357974,3.258578 -5.771484,5.771484 -1.41351,2.473643 -2.121094,5.379343 -2.121094,8.716797 0,3.337454 0.686282,6.262484 2.060547,8.775391 1.41351,2.473643 3.317763,4.399192 5.712891,5.773437 2.434372,1.334982 5.164156,2.001954 8.1875,2.001954 3.023343,0 5.772475,-0.666972 8.246093,-2.001954 2.473667,-1.374245 4.416569,-3.319124 5.830078,-5.832031 1.41351,-2.512906 2.121094,-5.418607 2.121094,-8.716797 0,-3.337454 -0.707584,-6.243154 -2.121094,-8.716797 -1.374264,-2.512906 -3.297818,-4.436503 -5.771484,-5.771484 -2.434373,-1.374246 -5.164157,-2.060547 -8.1875,-2.060547 z m 51.304685,0 c -3.02334,0 -5.75117,0.686301 -8.18554,2.060547 -2.43438,1.334981 -4.35993,3.258578 -5.773442,5.771484 -1.41351,2.473643 -2.11914,5.379343 -2.11914,8.716797 -10e-7,3.337454 0.686282,6.262484 2.060546,8.775391 1.413506,2.473643 3.317816,4.399192 5.712886,5.773437 2.43443,1.334982 5.16421,2.001954 8.1875,2.001954 3.02335,0 5.77048,-0.666972 8.24415,-2.001954 2.47361,-1.374245 4.41852,-3.319124 5.83203,-5.832031 1.41351,-2.512906 2.11914,-5.418607 2.11914,-8.716797 0,-3.337454 -0.70563,-6.243154 -2.11914,-8.716797 -1.37422,-2.512906 -3.29782,-4.436503 -5.77149,-5.771484 -2.43437,-1.374246 -5.16415,-2.060547 -8.1875,-2.060547 z m -51.363279,3.591797 c 2.120265,0 4.084468,0.491052 5.890625,1.472656 1.806157,0.94234 3.25802,2.396167 4.357422,4.359375 1.099402,1.923944 1.648438,4.29798 1.648438,7.125 0,2.82702 -0.568336,5.222339 -1.707032,7.185547 -1.099402,1.923944 -2.553218,3.377771 -4.359375,4.359375 -1.806108,0.94234 -3.768407,1.41211 -5.888671,1.41211 -2.120265,-10e-7 -4.082516,-0.46977 -5.888672,-1.41211 -1.766912,-0.981604 -3.20138,-2.435431 -4.300782,-4.359375 -1.060108,-1.963208 -1.589843,-4.358527 -1.589843,-7.185547 0,-2.82702 0.529735,-5.201056 1.589843,-7.125 1.099402,-1.963208 2.553219,-3.417035 4.359375,-4.359375 1.806157,-0.981604 3.768408,-1.472656 5.888672,-1.472656 z m 51.304689,0 c 2.12026,0 4.08251,0.491052 5.88867,1.472656 1.80616,0.94234 3.25997,2.396167 4.35938,4.359375 1.09935,1.923944 1.64843,4.29798 1.64843,7.125 0,2.82702 -0.56838,5.222339 -1.70703,7.185547 -1.0994,1.923944 -2.55322,3.377771 -4.35937,4.359375 -1.80616,0.94234 -3.76841,1.41211 -5.88868,1.41211 -2.12026,-10e-7 -4.08451,-0.46977 -5.89062,-1.41211 -1.76691,-0.981604 -3.19943,-2.435431 -4.29883,-4.359375 -1.06011,-1.963208 -1.58984,-4.358527 -1.58984,-7.185547 0,-2.82702 0.52973,-5.201056 1.58984,-7.125 1.0994,-1.963208 2.55127,-3.417035 4.35742,-4.359375 1.80616,-0.981604 3.77036,-1.472656 5.89063,-1.472656 z"
         transform="matrix(0.13776582,0,0,0.13776582,94.75804,1.9925074)" />
      <path
         id="rect888"
         style="display:inline;opacity:1;fill:#ffffff;stroke-width:0.0129835;stroke-linecap:square;stroke-linejoin:round;paint-order:markers stroke fill"
         d="m 117.00021,2.2489583 c -0.15614,0 -0.28171,0.1255641 -0.28171,0.2816982 v 5.2574346 c 0,0.1561328 0.12557,0.2816983 0.28171,0.2816983 h 12.46864 c 0.15613,0 0.28171,-0.1255655 0.28171,-0.2816983 V 2.5306565 c 0,-0.1561341 -0.12558,-0.2816982 -0.28171,-0.2816982 z m 9.86036,0.5956453 c 0.423,0 0.80471,0.099258 1.14572,0.2978241 0.34102,0.1942474 0.60879,0.4683684 0.80304,0.8223324 0.19427,0.3496483 0.29151,0.7466803 0.29151,1.1912939 0,0.4446131 -0.0972,0.8439682 -0.29151,1.1979319 -0.19425,0.3496482 -0.46202,0.6237695 -0.80304,0.822334 -0.34101,0.1942491 -0.72272,0.2911841 -1.14572,0.2911841 -0.41872,0 -0.79875,-0.096934 -1.13978,-0.2911841 -0.34102,-0.1985645 -0.6108,-0.4726858 -0.80934,-0.822334 -0.19426,-0.3539637 -0.29153,-0.7533188 -0.29153,-1.1979319 0,-0.4446136 0.0972,-0.8416456 0.29153,-1.1912939 0.19854,-0.353964 0.46832,-0.628085 0.80934,-0.8223324 0.34103,-0.1985661 0.72106,-0.2978241 1.13978,-0.2978241 z m -9.49457,0.051851 h 1.36611 c 0.50505,0 0.88508,0.1185811 1.13975,0.3559955 0.259,0.2374161 0.38824,0.5525077 0.38824,0.9453212 0,0.3884963 -0.12724,0.701582 -0.38192,0.9389963 -0.25468,0.2374146 -0.63672,0.3559972 -1.14607,0.3559972 h -0.91274 V 7.4222927 H 117.366 Z m 3.65479,0 h 1.35978 c 0.50506,0 0.88709,0.1205882 1.14609,0.3623199 0.26331,0.2417315 0.39488,0.5591457 0.39488,0.9519595 0,0.328064 -0.0949,0.6085207 -0.28487,0.8416195 -0.18561,0.2287786 -0.46204,0.3776671 -0.82895,0.4467342 l 1.16566,1.9232047 h -0.54412 l -1.12013,-1.8906403 h -0.8353 V 7.422293 h -0.45304 z m 5.83978,0.3493569 c -0.33673,0 -0.63914,0.077926 -0.90677,0.2333254 -0.26762,0.1553994 -0.47912,0.3775686 -0.63451,0.6667842 -0.15542,0.2892143 -0.23302,0.6259515 -0.23302,1.0101325 0,0.3841807 0.0776,0.7229253 0.23302,1.0164566 0.15539,0.2892141 0.36689,0.5116987 0.63451,0.6670981 0.26763,0.155399 0.57004,0.2330098 0.90677,0.2330098 0.33665,0 0.63877,-0.07761 0.9064,-0.2330098 0.26763,-0.1553994 0.47913,-0.377884 0.63452,-0.6670981 0.1554,-0.2935313 0.23301,-0.6322759 0.23301,-1.0164566 0,-0.384181 -0.0777,-0.7209182 -0.23301,-1.0101325 -0.15539,-0.2892155 -0.36689,-0.5113846 -0.63452,-0.666784 -0.26763,-0.1553973 -0.56975,-0.2333255 -0.9064,-0.2333256 z m -9.0412,0.032566 V 5.104205 h 0.91274 c 0.70792,0 1.06198,-0.3021041 1.06198,-0.906432 0,-0.3021643 -0.0843,-0.5309866 -0.25262,-0.6863856 -0.16835,-0.1553988 -0.43812,-0.233011 -0.80936,-0.233011 z m 3.65446,0 v 1.8843177 h 0.91307 c 0.35396,0 0.61942,-0.086586 0.79639,-0.259253 0.18134,-0.1726649 0.2719,-0.4034926 0.2719,-0.6927068 0,-0.2978485 -0.0862,-0.5266691 -0.25893,-0.6863855 -0.17267,-0.1640319 -0.44444,-0.2459727 -0.81569,-0.2459727 z" />
    </g>
  </g>
</svg>
