<?xml version="1.0" encoding="UTF-8" standalone="no"?>
<svg
   xmlns:dc="http://purl.org/dc/elements/1.1/"
   xmlns:cc="http://creativecommons.org/ns#"
   xmlns:rdf="http://www.w3.org/1999/02/22-rdf-syntax-ns#"
   xmlns:svg="http://www.w3.org/2000/svg"
   xmlns="http://www.w3.org/2000/svg"
   xmlns:sodipodi="http://sodipodi.sourceforge.net/DTD/sodipodi-0.dtd"
   xmlns:inkscape="http://www.inkscape.org/namespaces/inkscape"
   width="252.845"
   height="58.560001"
   viewBox="0 0 66.898573 15.494001"
   version="1.1"
   id="svg8"
   sodipodi:docname="DownloadButton.svg"
   inkscape:version="1.0 (4035a4fb49, 2020-05-01)">
  <sodipodi:namedview
     inkscape:document-rotation="0"
     pagecolor="#ffffff"
     bordercolor="#666666"
     borderopacity="1"
     objecttolerance="10"
     gridtolerance="10"
     guidetolerance="10"
     inkscape:pageopacity="0"
     inkscape:pageshadow="2"
     inkscape:window-width="1920"
     inkscape:window-height="1013"
     id="namedview10"
     showgrid="false"
     inkscape:zoom="4.7776305"
     inkscape:cx="126.4225"
     inkscape:cy="46.024703"
     inkscape:window-x="-9"
     inkscape:window-y="29"
     inkscape:window-maximized="1"
     inkscape:current-layer="svg8">
    <inkscape:grid
       type="xygrid"
       id="grid835" />
  </sodipodi:namedview>
  <defs
     id="defs2" />
  <metadata
     id="metadata5">
    <rdf:RDF>
      <cc:Work
         rdf:about="">
        <dc:format>image/svg+xml</dc:format>
        <dc:type
           rdf:resource="http://purl.org/dc/dcmitype/StillImage" />
        <dc:title />
      </cc:Work>
    </rdf:RDF>
  </metadata>
  <g
     style="fill:#ffffff"
     id="layer1">
    <g
       id="g846"
       transform="translate(-60.377903,-52.048843)"
       style="fill:#ffffff">
      <path
         transform="matrix(0.26458334,0,0,0.26458334,60.377903,52.048843)"
         d="M 29.279297,0 C 13.058177,0 0,13.058173 0,29.279297 c 0,16.22112 13.058177,29.28125 29.279297,29.28125 H 223.56445 c 16.22113,0 29.28125,-13.06013 29.28125,-29.28125 C 252.8457,13.058173 239.78558,0 223.56445,0 Z m 26.484375,15 c 2.613326,0 4.97342,0.61318 7.080078,1.839844 2.106661,1.199995 3.758987,2.893417 4.958984,5.080078 1.199995,2.159992 1.800782,4.612717 1.800782,7.359375 0,2.746658 -0.600787,5.213724 -1.800782,7.400391 -1.199997,2.159992 -2.852323,3.853414 -4.958984,5.080078 -2.106658,1.199995 -4.466752,1.800781 -7.080078,1.800781 -2.586658,0 -4.934358,-0.600786 -7.041016,-1.800781 -2.10666,-1.226664 -3.773336,-2.920086 -5,-5.080078 -1.199995,-2.186667 -1.798828,-4.653733 -1.798828,-7.400391 0,-2.746658 0.598833,-5.199383 1.798828,-7.359375 1.226664,-2.186661 2.89334,-3.880083 5,-5.080078 C 50.829314,15.61318 53.177014,15 55.763672,15 Z m 113.982418,0 c 2.61335,0 4.97342,0.61318 7.08008,1.839844 2.10666,1.199995 3.76094,2.893417 4.96094,5.080078 1.19997,2.159992 1.80078,4.612717 1.80078,7.359375 0,2.746658 -0.60081,5.213728 -1.80078,7.400391 -1.2,2.159992 -2.85428,3.853414 -4.96094,5.080078 -2.10666,1.199995 -4.46673,1.800781 -7.08008,1.800781 -2.58665,0 -4.9324,-0.600786 -7.03906,-1.800781 -2.10666,-1.226664 -3.77334,-2.920086 -5,-5.080078 -1.2,-2.186663 -1.80078,-4.653733 -1.80078,-7.400391 0,-2.746658 0.60078,-5.199383 1.80078,-7.359375 1.22666,-2.186661 2.89334,-3.880083 5,-5.080078 C 164.81369,15.61318 167.15944,15 169.74609,15 Z M 15,15.320312 h 8.279297 c 3.093324,0 5.747611,0.559693 7.960937,1.679688 2.213324,1.119997 3.906747,2.733186 5.080078,4.839844 1.173337,2.10666 1.759766,4.612873 1.759766,7.519531 0,2.87999 -0.586429,5.373808 -1.759766,7.480469 -1.173331,2.079992 -2.866754,3.680784 -5.080078,4.800781 -2.213326,1.093329 -4.867613,1.638672 -7.960937,1.638672 H 15 Z m 57.527344,0 h 3 l 6.40039,24.519532 7.160157,-24.519532 h 3.11914 l 6.960938,24.519532 6.439451,-24.519532 h 3 l -7.91992,27.958985 h -3.121094 l -7.039062,-23.839844 -7.199219,23.839844 -3.041016,0.04102 z m 40.363276,0 h 2.79883 l 15.48047,23.480469 V 15.320312 h 2.80078 v 27.958985 h -2.80078 L 115.68945,19.759766 v 23.519531 h -2.79883 z m 27.42188,0 h 2.79883 V 41 h 10.04101 v 2.279297 H 140.3125 Z m 74.45312,0 h 8.2793 c 3.09332,0 5.74762,0.559693 7.96094,1.679688 2.21334,1.119997 3.90481,2.733186 5.07812,4.839844 1.17335,2.10666 1.76172,4.612873 1.76172,7.519531 0,2.87999 -0.58837,5.373808 -1.76172,7.480469 -1.17331,2.079992 -2.86478,3.680784 -5.07812,4.800781 -2.21332,1.093329 -4.86762,1.638672 -7.96094,1.638672 h -8.2793 z m -17.81445,0.359376 h 3.16016 l 10.16015,27.599609 h -2.96093 l -2.43946,-6.638672 h -12.7207 l -2.43945,6.638672 h -2.95899 z M 55.763672,17.480469 c -2.079993,0 -3.948234,0.479455 -5.601563,1.439453 -1.653326,0.959995 -2.959924,2.33248 -3.919921,4.11914 -0.960004,1.786667 -1.439454,3.866908 -1.439454,6.240235 0,2.373326 0.47945,4.467923 1.439454,6.28125 0.959997,1.786661 2.266595,3.159137 3.919921,4.119141 1.653329,0.959997 3.52157,1.439453 5.601563,1.439453 2.079995,0 3.946283,-0.479456 5.599609,-1.439453 1.653329,-0.960004 2.959925,-2.33248 3.919922,-4.119141 0.959995,-1.813327 1.439453,-3.907924 1.439453,-6.28125 0,-2.373327 -0.479458,-4.453568 -1.439453,-6.240235 -0.959997,-1.78666 -2.266593,-3.159145 -3.919922,-4.11914 -1.653326,-0.959998 -3.519614,-1.439453 -5.599609,-1.439453 z m 113.982418,0 c -2.07997,0 -3.94626,0.479455 -5.59961,1.439453 -1.65331,0.959995 -2.95992,2.33248 -3.91992,4.11914 -0.96,1.786663 -1.43945,3.866908 -1.43945,6.240235 0,2.373326 0.47945,4.467923 1.43945,6.28125 0.96,1.786661 2.26661,3.159141 3.91992,4.119141 1.65335,0.959997 3.51964,1.439453 5.59961,1.439453 2.08,0 3.94822,-0.479456 5.60157,-1.439453 1.65331,-0.96 2.95992,-2.33248 3.91992,-4.119141 0.96,-1.813327 1.43945,-3.907924 1.43945,-6.28125 0,-2.373327 -0.47945,-4.453572 -1.43945,-6.240235 -0.96,-1.78666 -2.26661,-3.159145 -3.91992,-4.11914 -1.65335,-0.959998 -3.52157,-1.439453 -5.60157,-1.439453 z M 17.800781,17.640625 v 23.320313 h 5.478516 c 3.893321,0 6.854199,-1.014355 8.880859,-3.041016 2.053327,-2.053327 3.080078,-4.907225 3.080078,-8.560547 0,-3.67999 -1.026751,-6.546283 -3.080078,-8.599609 -2.02666,-2.079993 -4.987538,-3.119141 -8.880859,-3.119141 z m 199.763669,0 v 23.320313 h 5.48047 c 3.89332,0 6.8542,-1.014355 8.88086,-3.041016 2.05332,-2.053327 3.08008,-4.907225 3.08008,-8.560547 0,-3.67999 -1.02676,-6.546283 -3.08008,-8.599609 -2.02666,-2.079993 -4.98754,-3.119141 -8.88086,-3.119141 z m -19.05273,1.558594 -5.51953,15.121093 h 11.03906 z"
         style="fill:#ffffff;fill-opacity:1;stroke-width:2.50346;stroke-linecap:square;stroke-linejoin:round;paint-order:markers stroke fill"
         id="rect839" />
    </g>
  </g>
</svg>
